<svg id="date" xmlns="http://www.w3.org/2000/svg" width="37" height="37" viewBox="0 0 37 37">
  <circle id="Ellipse_1673" data-name="Ellipse 1673" cx="18.5" cy="18.5" r="18.5" fill="#ca90bb" opacity="0.45"/>
  <path id="Fill_168" data-name="Fill 168" d="M16.467,20H2.533A2.52,2.52,0,0,1,0,17.5V3.75a2.52,2.52,0,0,1,2.533-2.5H5.067V.625a.633.633,0,0,1,1.267,0V1.25h6.333V.625a.633.633,0,0,1,1.267,0V1.25h2.534A2.52,2.52,0,0,1,19,3.75V17.5A2.52,2.52,0,0,1,16.467,20ZM1.267,6.25V17.5a1.26,1.26,0,0,0,1.267,1.25H16.467a1.26,1.26,0,0,0,1.267-1.25V6.25ZM2.533,2.5A1.26,1.26,0,0,0,1.267,3.75V5H17.733V3.75A1.26,1.26,0,0,0,16.467,2.5H13.933v.626a.633.633,0,0,1-1.267,0V2.5H6.333v.626a.633.633,0,0,1-1.267,0V2.5ZM15.2,17.5H13.933a1.26,1.26,0,0,1-1.267-1.25V15a1.26,1.26,0,0,1,1.267-1.25H15.2A1.26,1.26,0,0,1,16.467,15v1.25A1.26,1.26,0,0,1,15.2,17.5ZM13.933,15v1.25H15.2V15Zm-3.8,2.5H8.867A1.26,1.26,0,0,1,7.6,16.25V15a1.26,1.26,0,0,1,1.267-1.25h1.267A1.26,1.26,0,0,1,11.4,15v1.25A1.26,1.26,0,0,1,10.133,17.5ZM8.867,15v1.25h1.266V15Zm-3.8,2.5H3.8a1.26,1.26,0,0,1-1.267-1.25V15A1.26,1.26,0,0,1,3.8,13.75H5.067A1.26,1.26,0,0,1,6.333,15v1.25A1.26,1.26,0,0,1,5.067,17.5ZM3.8,15v1.25H5.066V15Zm11.4-2.5H13.933a1.26,1.26,0,0,1-1.267-1.25V10a1.26,1.26,0,0,1,1.267-1.25H15.2A1.26,1.26,0,0,1,16.467,10v1.25A1.26,1.26,0,0,1,15.2,12.5ZM13.933,10v1.25H15.2V10Zm-3.8,2.5H8.867A1.26,1.26,0,0,1,7.6,11.25V10A1.26,1.26,0,0,1,8.867,8.75h1.267A1.26,1.26,0,0,1,11.4,10v1.25A1.26,1.26,0,0,1,10.133,12.5ZM8.867,10v1.25h1.265V10Zm-3.8,2.5H3.8a1.26,1.26,0,0,1-1.267-1.25V10A1.26,1.26,0,0,1,3.8,8.75H5.067A1.26,1.26,0,0,1,6.333,10v1.25A1.26,1.26,0,0,1,5.067,12.5ZM3.8,10v1.25H5.066V10Z" transform="translate(9 9)" fill="#ca90bb"/>
</svg>
