<svg id="Ic_Notification" xmlns="http://www.w3.org/2000/svg" xmlns:xlink="http://www.w3.org/1999/xlink" width="18.497" height="21.5" viewBox="0 0 18.497 21.5">
  <defs>
    <clipPath id="clip-path">
      <path id="Clip_2" data-name="Clip 2" d="M0,0H18.5V17.348H0Z" transform="translate(3 1)" fill="#1f1f1f"/>
    </clipPath>
  </defs>
  <g id="Notification" transform="translate(-3 -1)">
    <g id="Group_3" data-name="Group 3">
      <g id="Clip_2-2" data-name="Clip 2" clip-path="url(#clip-path)">
        <path id="Fill_1" data-name="Fill 1" d="M12.247,18.348c-4.676,0-8.9-.33-9.247-4.314a5.477,5.477,0,0,1,.944-3.224A5.115,5.115,0,0,0,4.816,7.7C4.816,4.462,7.8,1,12.247,1s7.431,3.462,7.431,6.7a5.12,5.12,0,0,0,.87,3.114,5.422,5.422,0,0,1,.949,3.161C21.149,18.014,16.923,18.348,12.247,18.348Zm0-15.848c-3.5,0-5.931,2.738-5.931,5.195a6.512,6.512,0,0,1-1.087,3.888A3.959,3.959,0,0,0,4.5,13.971a2.322,2.322,0,0,0,1.561,2.146c1.16.5,3.127.731,6.189.731,6.3,0,7.587-1.034,7.753-2.942a3.911,3.911,0,0,0-.733-2.32A6.518,6.518,0,0,1,18.178,7.7C18.178,5.238,15.742,2.5,12.247,2.5Z" fill="#1f1f1f"/>
      </g>
    </g>
    <path id="Fill_4" data-name="Fill 4" d="M3.181,2.643h0A4,4,0,0,1,.192,1.251a.75.75,0,0,1,1.115-1,2.523,2.523,0,0,0,1.873.894h0A2.531,2.531,0,0,0,5.061.248a.75.75,0,0,1,1.115,1A4.016,4.016,0,0,1,3.181,2.643Z" transform="translate(9.017 19.857)" fill="#1f1f1f"/>
  </g>
</svg>
