<svg id="Menu_icon" data-name="Menu icon" xmlns="http://www.w3.org/2000/svg" width="21.97" height="15.994" viewBox="0 0 21.97 15.994">
  <path id="Menu_icon-2" data-name="Menu icon" d="M1866.956,57a.944.944,0,0,1-.941-.94A1.088,1.088,0,0,1,1867,55h20a1.088,1.088,0,0,1,.986,1.057.945.945,0,0,1-.942.94Zm.043-7a1,1,0,0,1,0-2h20a1,1,0,0,1,0,2Zm0-7a1.087,1.087,0,0,1-.985-1.056.945.945,0,0,1,.941-.941h20.086a.945.945,0,0,1,.942.941A1.087,1.087,0,0,1,1887,43Z" transform="translate(-1866.015 -41.002)" fill="#1f1f1f"/>
</svg>
