<svg id="reason" xmlns="http://www.w3.org/2000/svg" width="37" height="37" viewBox="0 0 37 37">
  <circle id="Ellipse_1673" data-name="Ellipse 1673" cx="18.5" cy="18.5" r="18.5" fill="#38a8af" opacity="0.45"/>
  <path id="Fill_191" data-name="Fill 191" d="M3.563,19h0V14.8A7.934,7.934,0,0,1,0,8.313,7.772,7.772,0,0,1,2.783,2.435,10.161,10.161,0,0,1,9.5,0a10.161,10.161,0,0,1,6.718,2.435A7.772,7.772,0,0,1,19,8.313a7.772,7.772,0,0,1-2.783,5.878A10.163,10.163,0,0,1,9.5,16.625a11,11,0,0,1-1.776-.15L3.564,19ZM9.5,1.187A9,9,0,0,0,3.622,3.275,6.609,6.609,0,0,0,1.187,8.313a6.325,6.325,0,0,0,.97,3.338,7.693,7.693,0,0,0,2.577,2.494L4.7,16.9l2.8-1.681a9.629,9.629,0,0,0,2.007.218,9,9,0,0,0,5.878-2.087,6.609,6.609,0,0,0,2.435-5.038,6.609,6.609,0,0,0-2.435-5.038A9,9,0,0,0,9.5,1.187Zm2.968,10.094H6.531a.594.594,0,0,1,0-1.187h5.937a.594.594,0,0,1,0,1.187Zm1.188-3.563H5.344a.594.594,0,0,1,0-1.187h8.313a.594.594,0,0,1,0,1.187Z" transform="translate(9 10)" fill="#38a8af"/>
</svg>
