<svg id="Welcome" xmlns="http://www.w3.org/2000/svg" width="366.817" height="219.384" viewBox="0 0 366.817 219.384">
  <g id="Group_1031" data-name="Group 1031" transform="translate(69.5 69.599)" opacity="0.3">
    <path id="Path_1464" data-name="Path 1464" d="M754.323,929.04A58.554,58.554,0,0,1,743,923.278c-24.882-16.573-29.839-45.827-18.124-69.589,13.118-26.607,47.213-43.174,80.639-46.155,34.693-3.093,69.731,6.827,98.9,22.753,16.447,8.979,31.8,20.327,40.021,35.2s7.943,33.783-4.6,46.392c-19.564,19.669-56.085,21.671-84.393,22.991C822.592,936.4,785.132,940.982,754.323,929.04Z" transform="translate(-718.838 -806.971)" fill="#bfa564"/>
  </g>
  <g id="Group_1035" data-name="Group 1035" transform="translate(0 99.552)">
    <g id="Group_1032" data-name="Group 1032" transform="translate(31.799 8.966)">
      <path id="Path_1465" data-name="Path 1465" d="M476.441,1092.17q-4.559-1.3-9.234-2.869a5.5,5.5,0,0,1-3.271-3.035c-1.812-4.162-6.18-12.481-6.283-8.695-.193,7.1,2.5,18.514,5.223,25.608a8.689,8.689,0,0,0,4.148,4.634q5.207,2.654,10.325,4.951A57.154,57.154,0,0,0,476.441,1092.17Z" transform="translate(-457.642 -1076.609)" fill="#ffba9a"/>
      <path id="Path_1466" data-name="Path 1466" d="M674.04,1198.589c-14.986,5.033-31.044,5.72-48.041,2.607a163,163,0,0,1-37.2-12.03,57.228,57.228,0,0,0-.9-20.592q25.324,7.234,46.975,6.153a97.851,97.851,0,0,0,36.77-8.827Z" transform="translate(-569.097 -1153.012)" fill="#00b3f3"/>
    </g>
    <path id="Path_1467" data-name="Path 1467" d="M899.9,1198.589c-14.986,5.033-31.044,5.72-48.041,2.607a104.93,104.93,0,0,0,8.875-26.468,97.852,97.852,0,0,0,36.77-8.827Z" transform="translate(-763.161 -1144.046)" fill="#007ba7" opacity="0.6"/>
    <g id="Group_1033" data-name="Group 1033" transform="translate(0 0)">
      <path id="Path_1468" data-name="Path 1468" d="M320.8,1073.416l-12.956,2.937a4.27,4.27,0,0,1-5.079-3.1l-7.9-30.7,21.967-4.841,7.178,30.562A4.269,4.269,0,0,1,320.8,1073.416Z" transform="translate(-286.563 -1034.362)" fill="#fff"/>
      <path id="Path_1469" data-name="Path 1469" d="M238.244,1022.032l11.54-6.422-.824-.216,15.781,31.342,2.232,4.433c.349.692,1.388.083,1.04-.608l-15.781-31.342L250,1014.786a.61.61,0,0,0-.824-.216l-11.54,6.422c-.677.377-.071,1.417.608,1.04Z" transform="translate(-237.34 -1014.494)" fill="#013d55"/>
      <path id="Path_1470" data-name="Path 1470" d="M352.491,1150.555l-9.154,2.071a2.917,2.917,0,0,1-3.539-1.967l-5.2-19.974,16.64.266,3.576,16.207A2.9,2.9,0,0,1,352.491,1150.555Z" transform="translate(-320.558 -1113.914)" fill="#ff864d" opacity="0.3"/>
    </g>
    <g id="Group_1034" data-name="Group 1034" transform="translate(8.524 21.012)">
      <path id="Path_1471" data-name="Path 1471" d="M302.653,1162.552c.1,1.38-2.537,2.419-3.793,2.511a2.517,2.517,0,0,1-.366-5C299.749,1159.973,302.552,1161.172,302.653,1162.552Z" transform="translate(-296.394 -1160.06)" fill="#ffba9a"/>
      <path id="Path_1472" data-name="Path 1472" d="M314.606,1190.1c.376,1.475-1.956,3.027-3.147,3.33a2.819,2.819,0,0,1-1.362-5.342C311.289,1187.788,314.23,1188.628,314.606,1190.1Z" transform="translate(-306.766 -1183.993)" fill="#ffba9a"/>
      <path id="Path_1473" data-name="Path 1473" d="M323.752,1221.261c.376,1.475-1.956,3.027-3.147,3.33a2.819,2.819,0,0,1-1.362-5.342C320.435,1218.946,323.376,1219.786,323.752,1221.261Z" transform="translate(-314.592 -1210.654)" fill="#ffba9a"/>
    </g>
  </g>
  <g id="Group_1047" data-name="Group 1047" transform="translate(32.654 9.262)">
    <g id="Group_1044" data-name="Group 1044" transform="translate(0 0)">
      <path id="Path_1484" data-name="Path 1484" d="M463.569,397.452v32.494a8.5,8.5,0,0,0,8.5,8.5h42.857a8.5,8.5,0,0,0,8.5-8.5V397.452a8.5,8.5,0,0,0-8.5-8.5H472.067A8.5,8.5,0,0,0,463.569,397.452Z" transform="translate(-463.569 -388.954)" fill="#ff9498"/>
      <path id="Path_1485" data-name="Path 1485" d="M463.569,397.452v2.688h59.858v-2.688a8.5,8.5,0,0,0-8.5-8.5H472.067A8.5,8.5,0,0,0,463.569,397.452Z" transform="translate(-463.569 -388.954)" fill="#fff"/>
      <g id="Group_1043" data-name="Group 1043" transform="translate(7.952 16.23)">
        <g id="Group_1040" data-name="Group 1040" transform="translate(0.022 0.749)">
          <ellipse id="Ellipse_128" data-name="Ellipse 128" cx="2.959" cy="2.959" rx="2.959" ry="2.959" transform="translate(1.663 5.84) rotate(-80.723)" fill="#fff"/>
          <path id="Rectangle_178" data-name="Rectangle 178" d="M5.031,0h.058a5.031,5.031,0,0,1,5.031,5.031v0a0,0,0,0,1,0,0H0a0,0,0,0,1,0,0v0A5.031,5.031,0,0,1,5.031,0Z" transform="translate(0 7.945)" fill="#fff"/>
        </g>
        <g id="Group_1041" data-name="Group 1041" transform="translate(0 19.225)">
          <rect id="Rectangle_179" data-name="Rectangle 179" width="11.284" height="1.373" fill="#fff"/>
          <rect id="Rectangle_180" data-name="Rectangle 180" width="7.825" height="1.373" transform="translate(0 2.723)" fill="#fff"/>
          <rect id="Rectangle_181" data-name="Rectangle 181" width="10.462" height="1.373" transform="translate(0 5.446)" fill="#fff"/>
        </g>
        <g id="Group_1042" data-name="Group 1042" transform="translate(18.572 20.615)">
          <rect id="Rectangle_182" data-name="Rectangle 182" width="30.16" height="1.373" transform="translate(0.039)" fill="#fff"/>
          <rect id="Rectangle_183" data-name="Rectangle 183" width="17.005" height="1.373" transform="translate(0 2.723)" fill="#fff"/>
        </g>
        <rect id="Rectangle_184" data-name="Rectangle 184" width="25.071" height="14.906" rx="7.453" transform="translate(18.6)" fill="#fff"/>
      </g>
      <path id="Path_1486" data-name="Path 1486" d="M503.268,418.69a2.107,2.107,0,1,1,2.107-2.107A2.11,2.11,0,0,1,503.268,418.69Zm0-3.914a1.806,1.806,0,1,0,1.806,1.806A1.808,1.808,0,0,0,503.268,414.776Z" transform="translate(-495.735 -410.791)" fill="#013d55"/>
      <path id="Path_1487" data-name="Path 1487" d="M555.41,418.69a2.107,2.107,0,1,1,2.107-2.107A2.11,2.11,0,0,1,555.41,418.69Zm0-3.914a1.806,1.806,0,1,0,1.806,1.806A1.808,1.808,0,0,0,555.41,414.776Z" transform="translate(-540.351 -410.791)" fill="#013d55"/>
    </g>
    <g id="Group_1046" data-name="Group 1046" transform="translate(34.241 25.543)">
      <path id="Path_1488" data-name="Path 1488" d="M789.781,748.692c-4.148,5.393-10,9.482-17.038,12.659,14.765,23.916,45.434,52.784,64.723,57.323l39.83-19.46C839.043,794.413,808.669,767.23,789.781,748.692Z" transform="translate(-762.358 -722.31)" fill="#007ba7"/>
      <path id="Path_1489" data-name="Path 1489" d="M728.527,592.3c-2.628-2.579-5.035-4.992-7.209-7.153a49.706,49.706,0,0,1-8.2-9.874c-2.5-4.129-5.307-8.6-7.035-9.27-2.445-.947.508,6.181,2.216,10.432.463,1.153-1.027,2.548-2.106,3.336-3.271,2.391-4.919,4.692-5.038,6.907,3.059,5.97,6.538,12.132,10.333,18.28C718.529,601.778,724.379,597.689,728.527,592.3Z" transform="translate(-701.104 -565.913)" fill="#ffba9a"/>
      <g id="Group_1045" data-name="Group 1045" transform="translate(0 13.643)">
        <path id="Path_1490" data-name="Path 1490" d="M785.443,660.589a5.754,5.754,0,0,0-.528,2.821c.03.677.094,1.678.745,2.071.621.375,1.313-.088,1.735-.554a7.349,7.349,0,0,0,1.249-2.843c.122-.38-.476-.543-.6-.165a14.9,14.9,0,0,1-.607,1.8c-.265.566-1.171,1.9-1.705.843a4.835,4.835,0,0,1,.243-3.666c.177-.356-.357-.67-.535-.313Z" transform="translate(-772.766 -660.432)" fill="#bf643a"/>
        <path id="Path_1491" data-name="Path 1491" d="M730.8,673.312c1.276,1.432,2.47,3.17,4.154,4.158.522.306,1.212.552,1.685.035.847-.925-.029-2.446-.537-3.284a.341.341,0,0,0-.588.344c.286.472,1.478,2.826.155,2.507a4.761,4.761,0,0,1-1.773-1.337c-.94-.91-1.748-1.93-2.616-2.9-.292-.328-.772.155-.481.481Z" transform="translate(-726.395 -670.948)" fill="#bf643a"/>
        <path id="Path_1492" data-name="Path 1492" d="M716.851,688.133c1.121,1.291,2.627,3.855,4.6,3.954,1.865.094,1.21-2.149.835-3.165-.144-.39-.775-.222-.629.173a6.487,6.487,0,0,1,.425,1.385c.166,1.306-1.054.9-1.743.442a17,17,0,0,1-3.028-3.251c-.276-.318-.735.146-.461.461Z" transform="translate(-714.461 -683.648)" fill="#bf643a"/>
        <path id="Path_1493" data-name="Path 1493" d="M700.932,708.194c1.039.716,2.059,1.468,3.119,2.152.511.33,1.2.767,1.83.525,1.184-.451.672-2.348.229-3.14a.31.31,0,0,0-.535.313,2.984,2.984,0,0,1,.4,1.37c0,.522-.056.98-.805.837a2.468,2.468,0,0,1-.711-.38c-1.1-.681-2.143-1.477-3.211-2.211-.329-.227-.639.31-.313.535Z" transform="translate(-700.793 -700.774)" fill="#bf643a"/>
      </g>
    </g>
  </g>
  <g id="Group_1055" data-name="Group 1055" transform="translate(102.568 49.157)">
    <g id="Group_1052" data-name="Group 1052" transform="translate(61.189 0)">
      <path id="Path_1500" data-name="Path 1500" d="M1438.345,931.8l-12.331,10.085-14.191-9.634,1.674-24.186,23.271,6.424.12,1.294,1.005,11.042Z" transform="translate(-1406.054 -873.036)" fill="#ffba9a"/>
      <path id="Path_1501" data-name="Path 1501" d="M1482.865,954.207c-6.936-1.939-13.77-5.22-18.484-14.143l17.479,3.1Z" transform="translate(-1451.026 -900.412)" fill="#013d55"/>
      <path id="Path_1502" data-name="Path 1502" d="M1456.732,754.366c-.036,4.811-1.571,8.694-7.008,10.591-8.177,2.86-18.213-4.516-25.637-11.542l2.806-18.864,10.037-7.225,17.659,5.617c-.2,4.118.554,8.484,1.222,12.65A55.537,55.537,0,0,1,1456.732,754.366Z" transform="translate(-1416.547 -718.38)" fill="#ffba9a"/>
      <path id="Path_1503" data-name="Path 1503" d="M1385.908,690.954c1.9-5.36,4.923-9.465,10.035-11.239,10.982,4.283,19.468,5.921,27.9-3.01,0,0-5.72,2.208-14.35-7.426-7.375-8.232-23.181-1.605-24.887,2.509,0,0-12.745,2.709-5.218,17.16Z" transform="translate(-1376.264 -665.351)" fill="#013d55"/>
      <path id="Path_1504" data-name="Path 1504" d="M1384.558,827.861c-3.312-3.763-9.634-5.569-12.042-1.2s2.158,10.336,7.627,10.135S1384.558,827.861,1384.558,827.861Z" transform="translate(-1371.857 -801.194)" fill="#ffba9a"/>
      <path id="Path_1505" data-name="Path 1505" d="M1391.757,856.039a4.452,4.452,0,0,1,4.576,2.9c.136.359.718.2.581-.16a5.062,5.062,0,0,0-5.157-3.345c-.385.025-.388.628,0,.6Z" transform="translate(-1388.637 -827.99)" fill="#013d55"/>
      <ellipse id="Ellipse_129" data-name="Ellipse 129" cx="1.254" cy="1.254" rx="1.254" ry="1.254" transform="translate(23.743 25.302)" fill="#013d55"/>
      <ellipse id="Ellipse_130" data-name="Ellipse 130" cx="1.254" cy="1.254" rx="1.254" ry="1.254" transform="translate(31.846 25.177)" fill="#013d55"/>
      <path id="Path_1506" data-name="Path 1506" d="M1574.39,858.132c.609.638,1.229,1.267,1.829,1.914.483.521,1.083.959.614,1.843-.328.618-1.17.847-1.77,1.043-.367.12-.21.7.16.581,1.049-.342,2.47-.948,2.4-2.292a2.187,2.187,0,0,0-.719-1.327c-.67-.751-1.395-1.46-2.09-2.187-.268-.281-.694.145-.426.426Z" transform="translate(-1545.083 -829.863)" fill="#013d55"/>
      <path id="Path_1507" data-name="Path 1507" d="M1545.389,915.036l7.827.452S1549.679,923.089,1545.389,915.036Z" transform="translate(-1520.341 -878.996)" fill="#fff"/>
      <path id="Path_1508" data-name="Path 1508" d="M1524.787,814.4c-.617.155-1.261.116-1.88.284a14,14,0,0,1-1.517.344c-.421.065-1.943.322-1.727-.742.117-.577.959-.954,1.393-1.024.995-.161,1.983-.31,2.977-.482.6-.1,1.812.469,1.13,1.386A.644.644,0,0,1,1524.787,814.4Z" transform="translate(-1498.311 -791.493)" fill="#013d55"/>
      <path id="Path_1509" data-name="Path 1509" d="M1585.435,816.747c.6.119,1.193.066,1.8.2.489.106.981.2,1.471.26.4.046,1.863.229,1.48-.706a2.037,2.037,0,0,0-1.473-.865c-.953-.113-1.9-.217-2.853-.34-.574-.074-1.606.468-.814,1.259A.738.738,0,0,0,1585.435,816.747Z" transform="translate(-1554.027 -793.644)" fill="#013d55"/>
      <ellipse id="Ellipse_131" data-name="Ellipse 131" cx="4.427" cy="4.427" rx="4.427" ry="4.427" transform="translate(15.163 27.51)" fill="#ff9498" opacity="0.4"/>
      <path id="Path_1510" data-name="Path 1510" d="M1619.132,862.657a4.128,4.128,0,0,1-.825.078,4.426,4.426,0,0,1-.1-8.851A55.553,55.553,0,0,1,1619.132,862.657Z" transform="translate(-1578.948 -826.671)" fill="#ff9498" opacity="0.4"/>
    </g>
    <g id="Group_1054" data-name="Group 1054" transform="translate(0 51.845)">
      <path id="Path_1511" data-name="Path 1511" d="M1182.268,1069.376c10.36,3.137,17.392,4.852,26.755,10.451,9.89,5.914,16.777,17.529,21.313,28.083,5.824,13.552,12.7,32.247,10.838,41.545l-5.118,25.689H1117.041l7.225-19.869-13.045-8.63,20.471-56.4,27.295-20.672,11.139,3.412Z" transform="translate(-1087.652 -1062.903)" fill="#00b3f3"/>
      <rect id="Rectangle_191" data-name="Rectangle 191" width="0.602" height="27.812" transform="translate(118.317 41.9) rotate(-20.266)" fill="#013d55"/>
      <path id="Path_1512" data-name="Path 1512" d="M1523.131,1053.143l-3.813-6.924,10.574-8.128c1.307,1.176,4.857,4.226,6.51,5.983A30.289,30.289,0,0,1,1523.131,1053.143Z" transform="translate(-1436.844 -1036.134)" fill="#fff"/>
      <g id="Group_1053" data-name="Group 1053" transform="translate(0 6.171)">
        <path id="Path_1513" data-name="Path 1513" d="M1009.86,1142.152c-25.541-2.769-33.256-.7-33.256-.7L991.1,1104.72l28.336-34.119-9.515-3.312-16.154,5.375a54.947,54.947,0,0,0-34.409,32.486c-6.559,17.486-13.517,39.337-10.82,47.335,3.8,11.284,15.405,14.6,55.151,7.032C1001.473,1154.191,1004.021,1145.708,1009.86,1142.152Z" transform="translate(-947.938 -1067.29)" fill="#00b3f3"/>
        <path id="Path_1514" data-name="Path 1514" d="M1340.024,1586.438c-1.52-.183-2.971-.347-4.381-.5-5.839,3.555-8.387,12.039-6.176,17.366l1.207-.23a25.691,25.691,0,0,1,9.562-.031c5.36,1,13.526,2.537,15.794,3.063,3.461.8,6.922.8,8.436-.6S1365.386,1589.5,1340.024,1586.438Z" transform="translate(-1273.722 -1511.076)" fill="#ffba9a"/>
      </g>
      <path id="Path_1515" data-name="Path 1515" d="M1394.394,1034.619c-4.763-2.788-10.742-7.3-15.5-10.085l-5.569,6.171a43.27,43.27,0,0,0,14.651,11.54Z" transform="translate(-1311.921 -1024.534)" fill="#fff"/>
      <path id="Path_1516" data-name="Path 1516" d="M1468.088,1689.639q-5.8-3.157-11.582-6.328c-.34-.185-.645.334-.3.52q5.795,3.157,11.582,6.329c.34.185.645-.334.3-.52Z" transform="translate(-1382.711 -1588.189)" fill="#bf643a"/>
      <path id="Path_1517" data-name="Path 1517" d="M1487.445,1665.531c-3.143-4.525-8.158-7.384-12.852-10.043a.3.3,0,0,0-.3.52c4.6,2.605,9.556,5.392,12.636,9.827.22.316.742.015.52-.3Z" transform="translate(-1398.189 -1564.38)" fill="#bf643a"/>
      <path id="Path_1518" data-name="Path 1518" d="M1498.627,1642.66a38.259,38.259,0,0,0-13.392-11.263c-.345-.175-.65.345-.3.52a37.619,37.619,0,0,1,13.176,11.047c.229.307.752.007.52-.3Z" transform="translate(-1407.29 -1543.771)" fill="#bf643a"/>
      <path id="Path_1519" data-name="Path 1519" d="M1230.608,1333.843c3.108,2.877,6.563,6.078,10.937,6.681,3.209.443,7.1-.569,8.687-3.654a6.125,6.125,0,0,0-1.642-7.327c-2.551-1.939-5.749-.289-6.908,2.379-1.369,3.151.3,6.382,3.024,8.147,3.978,2.578,8.96,1.73,13.326.836,3.525-.722,7.864-1.909,9.335-5.61.992-2.5.474-6.1-2.456-6.982-2.9-.875-6.015,1.726-6.319,4.585-.4,3.753,2.806,6.835,6.117,7.9a21.733,21.733,0,0,0,12.94-.452c3.081-1.089,5.589-3.532,5.325-7-.215-2.815-2.686-5.074-5.538-3.906a5.425,5.425,0,0,0-2.378,7.931c2.242,3.667,6.726,4.462,10.695,4.158,3.885-.3,9.119-.788,11.791-4.022,1.831-2.217,2.355-6.29-.475-7.979-2.411-1.439-5.821.043-6.934,2.475-1.452,3.17.845,6.878,3.764,8.217,3.969,1.821,8.53.055,11.757-2.437a43.818,43.818,0,0,0,4.923-4.687c.266-.281-.159-.708-.426-.426-2.322,2.453-4.718,5-7.8,6.49-3.158,1.523-7.294,1.845-10.012-.724-2.352-2.224-2.958-6.227.116-8.124a3.8,3.8,0,0,1,5.924,4.03c-.63,3.447-3.909,5.044-7.019,5.752-3.4.774-7.332,1.4-10.76.506-3.038-.795-6.592-3.708-5.752-7.247.761-3.208,5.4-5.3,7.1-1.649,1.25,2.684-.14,5.647-2.5,7.132-2.7,1.7-6.276,1.978-9.386,2.031-3.349.057-6.921-.6-9.213-3.256-2.224-2.579-2.338-6.6.958-8.35,3.415-1.81,6,1.522,5.318,4.773s-3.765,4.853-6.7,5.683a30.8,30.8,0,0,1-10.351,1.431c-3.248-.246-6.884-1.884-8.014-5.188-1.046-3.059,1.487-7.806,5.193-6.488,2.854,1.016,3.754,5.136,2.213,7.532-1.851,2.879-5.88,3.492-8.968,2.695-3.74-.966-6.7-3.736-9.455-6.289-.284-.263-.711.162-.426.426Z" transform="translate(-1189.726 -1284.318)" fill="#007ba7" opacity="0.6"/>
      <path id="Path_1520" data-name="Path 1520" d="M1178.824,1363.585c-15.643-6.033-32.657-6.1-32.827-6.1h-.467l14.364-31.735.548.248-13.982,30.891c2.848.057,18.283.623,32.579,6.136Z" transform="translate(-1117.009 -1282.271)" fill="#013d55" opacity="0.8"/>
      <path id="Path_1521" data-name="Path 1521" d="M1177.572,1707.769l-.158-.581c4.389-1.2,21.853-2.939,22.594-3.013l.059.6C1199.886,1704.792,1181.913,1706.585,1177.572,1707.769Z" transform="translate(-1144.291 -1606.075)" fill="#013d55"/>
    </g>
  </g>
  <g id="Group_1057" data-name="Group 1057" transform="translate(154.035)">
    <path id="Path_1522" data-name="Path 1522" d="M1343.629,342.474c0-9.766-8.761-17.684-19.568-17.684s-19.568,7.917-19.568,17.684,8.761,17.684,19.568,17.684a21.6,21.6,0,0,0,4.421-.459c2.927,2.387,7.019,5.533,7.019,5.533l-1.294-7.634A17.4,17.4,0,0,0,1343.629,342.474Z" transform="translate(-1304.494 -324.79)" fill="#fff"/>
    <g id="Group_1056" data-name="Group 1056" transform="translate(13.593 11.27)">
      <path id="Path_1523" data-name="Path 1523" d="M1398.932,411.336l5.514,5.052a.834.834,0,0,0,1.3-.167,36.832,36.832,0,0,1,8.286-11.943c.763-.743-.406-1.911-1.168-1.168a37.993,37.993,0,0,0-8.544,12.277l1.3-.167-5.514-5.052c-.783-.717-1.954.448-1.168,1.168Z" transform="translate(-1398.672 -402.872)" fill="#ff9498"/>
    </g>
  </g>
  <g id="Group_1058" data-name="Group 1058" transform="translate(169.236 158.834)">
    <rect id="Rectangle_192" data-name="Rectangle 192" width="47.566" height="5.112" transform="translate(0.001 44.179)" fill="#013d55"/>
    <path id="Path_1524" data-name="Path 1524" d="M1690.564,1474.494h-57.143l19.411-49.29h57.143Z" transform="translate(-1601.145 -1425.203)" fill="#fff"/>
    <path id="Path_1525" data-name="Path 1525" d="M1877.038,1575.185h-9.37l3.192-8.416h9.371Zm-8.554-.563h8.165l2.765-7.289h-8.165Z" transform="translate(-1801.581 -1546.335)" fill="#251930"/>
  </g>
  <g id="Group_1059" data-name="Group 1059" transform="translate(92.543 207.943)">
    <rect id="Rectangle_193" data-name="Rectangle 193" width="188.456" height="11.36" transform="translate(0 0.081)" fill="#fff2d2"/>
    <rect id="Rectangle_194" data-name="Rectangle 194" width="188.256" height="0.563" transform="translate(0 0)" fill="#013d55"/>
  </g>
  <g id="Group_1060" data-name="Group 1060" transform="translate(52.258 33.82)">
    <path id="Path_1526" data-name="Path 1526" d="M633.572,1635.884a3.293,3.293,0,0,1-2.325-.955,3.253,3.253,0,0,1,0-4.623,3.31,3.31,0,0,1,4.651,0h0a3.254,3.254,0,0,1,0,4.623A3.292,3.292,0,0,1,633.572,1635.884Zm0-6.125a2.882,2.882,0,0,0-2.039.837,2.845,2.845,0,0,0,0,4.044,2.9,2.9,0,0,0,4.077,0,2.844,2.844,0,0,0,0-4.044h0A2.881,2.881,0,0,0,633.572,1629.758Z" transform="translate(-625.824 -1474.87)" fill="#bfa564"/>
    <path id="Path_1527" data-name="Path 1527" d="M1118.54,565.632a3.29,3.29,0,0,1-2.325-.955,3.253,3.253,0,0,1,0-4.622,3.308,3.308,0,0,1,4.651,0h0a3.253,3.253,0,0,1,0,4.622A3.292,3.292,0,0,1,1118.54,565.632Zm0-6.125a2.884,2.884,0,0,0-2.038.837,2.846,2.846,0,0,0,0,4.045,2.9,2.9,0,0,0,4.077,0,2.845,2.845,0,0,0,0-4.045h0A2.885,2.885,0,0,0,1118.54,559.506Z" transform="translate(-1040.791 -559.099)" fill="#bfa564"/>
    <path id="Path_1528" data-name="Path 1528" d="M2410.744,1547.178a3.293,3.293,0,0,1-2.326-.955,3.254,3.254,0,0,1,0-4.623,3.311,3.311,0,0,1,4.651,0,3.255,3.255,0,0,1,0,4.623A3.292,3.292,0,0,1,2410.744,1547.178Zm0-6.126a2.884,2.884,0,0,0-2.039.837,2.846,2.846,0,0,0,0,4.044,2.9,2.9,0,0,0,4.078,0,2.846,2.846,0,0,0,0-4.044A2.885,2.885,0,0,0,2410.744,1541.052Z" transform="translate(-2146.477 -1398.968)" fill="#bfa564"/>
    <path id="Path_1529" data-name="Path 1529" d="M2399.118,893.823h-5.224V888.6h5.224Zm-4.817-.407h4.41v-4.41h-4.41Z" transform="translate(-2134.874 -841.039)" fill="#bfa564"/>
    <path id="Path_1530" data-name="Path 1530" d="M1831.132,602.754l-3.694-3.694,3.694-3.694,3.694,3.694Zm-3.119-3.694,3.119,3.118,3.119-3.118-3.119-3.118Z" transform="translate(-1650.181 -590.132)" fill="#bfa564"/>
    <path id="Path_1531" data-name="Path 1531" d="M603.091,965.385l-3.694-3.694L603.091,958l3.694,3.694Zm-3.118-3.694,3.118,3.118,3.118-3.118-3.118-3.118Z" transform="translate(-599.396 -900.419)" fill="#bfa564"/>
  </g>
  <g id="Group_1039" data-name="Group 1039" transform="translate(202.879 94.068)">
    <g id="Group_1036" data-name="Group 1036" transform="translate(116.616 0)">
      <path id="Path_1474" data-name="Path 1474" d="M2630.2,1016.337a23.661,23.661,0,0,1,2.444,33.372c-.428.5-.876.963-1.335,1.414l-16.573-16.878Z" transform="translate(-2591.073 -1010.586)" fill="#ff864d"/>
      <path id="Path_1475" data-name="Path 1475" d="M2474.469,1000.594l16.573,16.878A23.658,23.658,0,1,1,2472.6,977.01Z" transform="translate(-2450.808 -976.936)" fill="#fff"/>
      <path id="Path_1476" data-name="Path 1476" d="M2601.8,976.57a23.585,23.585,0,0,1,17.331,5.677l-15.464,17.908Z" transform="translate(-2580.01 -976.496)" fill="#ffba9a"/>
    </g>
    <g id="Group_1038" data-name="Group 1038" transform="translate(0 12.483)">
      <path id="Path_1477" data-name="Path 1477" d="M1746.268,1171.853a206.137,206.137,0,0,1-32,13.133c-13.217,4.136-26.2,6.592-37.574,6.8l-23.406-27.811-10.4-12.354a91.675,91.675,0,0,0,12.964,4.522c15.323,4.135,31.042,4.37,45.657,2.808,15.352-1.636,29.489-5.24,40.682-8.378A41.977,41.977,0,0,0,1746.268,1171.853Z" transform="translate(-1642.888 -1137.928)" fill="#00b3f3"/>
      <path id="Path_1478" data-name="Path 1478" d="M2362.375,1063c-1.779-.276-7.084,2.55-11.2,4.958a53.311,53.311,0,0,1-12.281,5.243c-2.588.739-5.432,1.563-8.5,2.422a41.966,41.966,0,0,0,4.079,21.281,189.451,189.451,0,0,0,20.592-12.178c.987-2.027.732-4.9-.842-8.673a3.084,3.084,0,0,1,.726-3.515C2358.467,1069.618,2364.892,1063.387,2362.375,1063Z" transform="translate(-2231.093 -1062.977)" fill="#ffba9a"/>
      <g id="Group_1037" data-name="Group 1037" transform="translate(114.622 7.836)">
        <path id="Path_1479" data-name="Path 1479" d="M2440.489,1118.063a4.651,4.651,0,0,1-.762,1.718c-.3.433-.827,1.2-1.364,1.366-1.544.482-.269-2.961-.067-3.517.132-.365-.449-.522-.58-.16a6.382,6.382,0,0,0-.691,3.1c.084.545.341,1.168.959,1.25.727.1,1.38-.63,1.8-1.125a5.614,5.614,0,0,0,1.288-2.475c.075-.379-.505-.541-.581-.16Z" transform="translate(-2436.991 -1117.265)" fill="#bf643a"/>
        <path id="Path_1480" data-name="Path 1480" d="M2458.7,1154.007c-1.2.229-2.383.527-3.6.67a5.915,5.915,0,0,1-2.011.043c-1.564-.4.7-1.634,1.334-1.883.392-.153.222-.793-.176-.638-.884.344-2.492.979-2.405,2.2.047.668.663.892,1.241.986,1.893.307,3.95-.387,5.792-.738.418-.08.241-.718-.176-.638Z" transform="translate(-2449.693 -1147.137)" fill="#bf643a"/>
        <path id="Path_1481" data-name="Path 1481" d="M2463.932,1172.426a20.385,20.385,0,0,1-3.8.713,5.513,5.513,0,0,1-.579-.021c-.685-.067-.7-.016-.88-.694s-.07-.679.438-1.043c.21-.15.432-.284.65-.421.345-.217.027-.766-.32-.547-.9.566-2.745,1.873-1.29,2.945,1.538,1.134,4.369,0,5.954-.32.4-.082.23-.693-.169-.612Z" transform="translate(-2454.631 -1162.697)" fill="#bf643a"/>
        <path id="Path_1482" data-name="Path 1482" d="M2469.344,1192.917c-1.255-.066-2.52-.079-3.771-.2-.683-.064-1.472-.574-.821-1.3a3.179,3.179,0,0,1,1.111-.787c.354-.154.048-.673-.3-.52-.839.364-2.427,1.654-1.542,2.678a2.171,2.171,0,0,0,1.464.527c1.28.131,2.579.137,3.864.2.387.02.386-.582,0-.6Z" transform="translate(-2459.893 -1179.571)" fill="#bf643a"/>
      </g>
      <path id="Path_1483" data-name="Path 1483" d="M1775.911,1218.006c-13.217,4.136-26.2,6.592-37.574,6.8l-23.406-27.811,2.566-7.832c15.323,4.135,31.042,4.37,45.657,2.808A82.606,82.606,0,0,0,1775.911,1218.006Z" transform="translate(-1704.532 -1170.948)" fill="#007ba7" opacity="0.6"/>
    </g>
  </g>
  <g id="Group_1051" data-name="Group 1051" transform="translate(195.902 3.774)">
    <g id="Group_1049" data-name="Group 1049" transform="translate(65.791)">
      <path id="Path_1494" data-name="Path 1494" d="M2050.371,380.992l41.126,28.117,21.672-31.746-41.643-26.425Z" transform="translate(-2050.371 -350.938)" fill="#c2afea"/>
      <path id="Path_1495" data-name="Path 1495" d="M2073.883,396.265c14.227,10.139,27.5,21.05,36.731,23.5,6.328-3.734,13.394-16.144,19.017-26.855l-37.054-23.243Z" transform="translate(-2070.489 -366.968)" fill="#fff"/>
      <path id="Path_1496" data-name="Path 1496" d="M2089.183,415.3l6.231-8.274-7.361-4.98-5.475,7.7Z" transform="translate(-2077.928 -394.672)" fill="#7252b7"/>
      <g id="Group_1048" data-name="Group 1048" transform="translate(16.187 13.249)">
        <rect id="Rectangle_185" data-name="Rectangle 185" width="20.193" height="3.743" transform="matrix(0.569, -0.822, 0.822, 0.569, 0, 16.606)" fill="#36295b"/>
        <rect id="Rectangle_186" data-name="Rectangle 186" width="29.167" height="1.315" transform="translate(5.106 25.594) rotate(-55.322)" fill="#7252b7"/>
        <rect id="Rectangle_187" data-name="Rectangle 187" width="21.021" height="1.315" transform="matrix(0.569, -0.822, 0.822, 0.569, 8.069, 27.689)" fill="#7252b7"/>
        <rect id="Rectangle_188" data-name="Rectangle 188" width="29.241" height="1.552" transform="matrix(0.569, -0.822, 0.822, 0.569, 10.966, 29.672)" fill="#7252b7"/>
        <rect id="Rectangle_189" data-name="Rectangle 189" width="24.845" height="1.312" transform="translate(14.06 31.79) rotate(-55.322)" fill="#c2afea"/>
        <rect id="Rectangle_190" data-name="Rectangle 190" width="12.33" height="1.315" transform="matrix(0.569, -0.822, 0.822, 0.569, 17.043, 33.854)" fill="#c2afea"/>
      </g>
    </g>
    <g id="Group_1050" data-name="Group 1050" transform="translate(0 31.49)">
      <path id="Path_1497" data-name="Path 1497" d="M2108.552,600.834q2.1-5.141,4.026-10.66a6.384,6.384,0,0,0-2.25-7.223,23.553,23.553,0,0,0-6.113-3.152s3.059-10.612.843-10.7-6.234,11.382-6.234,11.382a109.623,109.623,0,0,1-6.407,11.111A39.863,39.863,0,0,0,2108.552,600.834Z" transform="translate(-2020.557 -569.103)" fill="#ffba9a"/>
      <path id="Path_1498" data-name="Path 1498" d="M1666.427,724.935c-14.348,21.92-39.142,43.848-71.86,52.1l5.3,12.784,30.739,7.425c22.294-12.027,39.475-32.5,51.961-63.07A39.863,39.863,0,0,1,1666.427,724.935Z" transform="translate(-1594.567 -702.442)" fill="#007ba7"/>
      <path id="Path_1499" data-name="Path 1499" d="M2190.971,669.459a6.755,6.755,0,0,1,1.407,6.636c-.131.365.45.523.581.16a7.331,7.331,0,0,0-1.562-7.222c-.281-.268-.707.157-.426.426Z" transform="translate(-2104.807 -654.536)" fill="#bf643a"/>
    </g>
  </g>
</svg>
