<svg id="Component_268_4" data-name="Component 268 – 4" xmlns="http://www.w3.org/2000/svg" width="37" height="37" viewBox="0 0 37 37">
  <circle id="Ellipse_1673" data-name="Ellipse 1673" cx="18.5" cy="18.5" r="18.5" fill="#7f32de" opacity="0.4"/>
  <path id="Fill_200" data-name="Fill 200" d="M16.625,18H2.375A2.39,2.39,0,0,1,0,15.6V4.8A2.39,2.39,0,0,1,2.375,2.4H5.937V1.2A1.2,1.2,0,0,1,7.125,0h4.75a1.2,1.2,0,0,1,1.187,1.2V2.4h3.563A2.391,2.391,0,0,1,19,4.8V15.6A2.39,2.39,0,0,1,16.625,18ZM1.187,9v6.6a1.2,1.2,0,0,0,1.187,1.2h14.25a1.2,1.2,0,0,0,1.187-1.2V9H11.791A2.375,2.375,0,1,1,7.209,9ZM8.477,9a1.188,1.188,0,1,0,2.046,0H8.477Zm-6.1-5.4A1.2,1.2,0,0,0,1.187,4.8v3H17.812v-3a1.2,1.2,0,0,0-1.187-1.2ZM7.719,1.2a.6.6,0,0,0-.594.6v.6h4.75V1.8a.6.6,0,0,0-.594-.6Z" transform="translate(9 10)" fill="#7f32de"/>
</svg>
